<?xml version="1.0" encoding="UTF-8"?>
<svg xmlns="http://www.w3.org/2000/svg" xmlns:xlink="http://www.w3.org/1999/xlink" width="192pt" height="256pt" viewBox="0 0 192 256" version="1.1">
<g id="surface1">
<path style=" stroke:none;fill-rule:nonzero;fill:rgb(95.686275%,50.196081%,14.117648%);fill-opacity:1;" d="M 145.351562 155.5 L 47.5 134.851562 L 43.398438 154.5 L 141.25 175 Z M 170.851562 112 L 94.101562 47.851562 L 81.351562 63.25 L 158.101562 127.398438 Z M 155.25 131.851562 L 64.601562 89.5 L 56.25 107.75 L 146.851562 150 Z M 131 16 L 115 28 L 174.648438 108.148438 L 190.648438 96.148438 Z M 141.25 180 L 41.25 180 L 41.25 199.851562 L 141.25 199.851562 Z M 161.101562 220 L 21.351562 220 L 21.351562 160 L 1.351562 160 L 1.351562 240 L 181.101562 240 L 181.101562 160 L 161.101562 160 Z M 161.101562 220 "/>
</g>
</svg>
