<?xml version="1.0" encoding="UTF-8"?>
<svg xmlns="http://www.w3.org/2000/svg" xmlns:xlink="http://www.w3.org/1999/xlink" width="256pt" height="256pt" viewBox="0 0 256 256" version="1.1">
<g id="surface1">
<path style=" stroke:none;fill-rule:nonzero;fill:rgb(11.372549%,63.137257%,94.901961%);fill-opacity:1;" d="M 229.683594 75.859375 C 229.847656 78.132812 229.847656 80.40625 229.847656 82.679688 C 229.847656 152.039062 177.054688 231.960938 80.570312 231.960938 C 50.84375 231.960938 23.226562 223.351562 0 208.40625 C 4.222656 208.894531 8.285156 209.054688 12.671875 209.054688 C 37.199219 209.054688 59.777344 200.773438 77.808594 186.640625 C 54.742188 186.152344 35.410156 171.046875 28.75 150.253906 C 32 150.742188 35.25 151.066406 38.660156 151.066406 C 43.371094 151.066406 48.082031 150.414062 52.46875 149.28125 C 28.425781 144.40625 10.394531 123.289062 10.394531 97.785156 L 10.394531 97.136719 C 17.378906 101.035156 25.503906 103.472656 34.109375 103.796875 C 19.980469 94.375 10.71875 78.292969 10.71875 60.101562 C 10.71875 50.355469 13.320312 41.421875 17.867188 33.625 C 43.695312 65.460938 82.515625 86.253906 126.050781 88.527344 C 125.238281 84.628906 124.75 80.570312 124.75 76.507812 C 124.75 47.59375 148.140625 24.039062 177.21875 24.039062 C 192.324219 24.039062 205.96875 30.375 215.550781 40.609375 C 227.410156 38.335938 238.78125 33.949219 248.851562 27.941406 C 244.953125 40.121094 236.667969 50.355469 225.785156 56.851562 C 236.34375 55.714844 246.578125 52.792969 256 48.730469 C 248.851562 59.128906 239.917969 68.386719 229.683594 75.859375 Z M 229.683594 75.859375 "/>
</g>
</svg>
