<?xml version="1.0" encoding="UTF-8"?>
<svg xmlns="http://www.w3.org/2000/svg" xmlns:xlink="http://www.w3.org/1999/xlink" width="224pt" height="256pt" viewBox="0 0 224 256" version="1.1">
<g id="surface11">
<path style=" stroke:none;fill-rule:nonzero;fill:rgb(29.411766%,54.509807%,74.509805%);fill-opacity:1;" d="M 219.898438 100.25 C 216.050781 84.800781 208.75 73.148438 193.199219 73.148438 L 173.148438 73.148438 L 173.148438 96.851562 C 173.148438 115.25 157.550781 130.75 139.75 130.75 L 86.351562 130.75 C 71.75 130.75 59.648438 143.25 59.648438 157.898438 L 59.648438 208.800781 C 59.648438 223.300781 72.25 231.800781 86.351562 235.949219 C 103.25 240.898438 119.5 241.800781 139.75 235.949219 C 153.199219 232.050781 166.449219 224.199219 166.449219 208.800781 L 166.449219 188.449219 L 113.101562 188.449219 L 113.101562 181.648438 L 193.199219 181.648438 C 208.75 181.648438 214.5 170.800781 219.898438 154.550781 C 225.5 137.800781 225.25 121.699219 219.898438 100.25 Z M 143.101562 202 C 148.648438 202 153.148438 206.550781 153.148438 212.148438 C 153.148438 217.800781 148.648438 222.351562 143.101562 222.351562 C 137.601562 222.351562 133.050781 217.75 133.050781 212.148438 C 133.101562 206.5 137.601562 202 143.101562 202 Z M 83.898438 124.050781 L 137.300781 124.050781 C 152.148438 124.050781 164 111.800781 164 96.898438 L 164 45.949219 C 164 31.449219 151.800781 20.601562 137.300781 18.148438 C 119.398438 15.199219 99.949219 15.351562 83.898438 18.199219 C 61.300781 22.199219 57.199219 30.550781 57.199219 46 L 57.199219 66.351562 L 110.648438 66.351562 L 110.648438 73.148438 L 37.148438 73.148438 C 21.601562 73.148438 8 82.5 3.75 100.25 C -1.148438 120.601562 -1.351562 133.300781 3.75 154.550781 C 7.550781 170.351562 16.601562 181.648438 32.148438 181.648438 L 50.5 181.648438 L 50.5 157.25 C 50.5 139.601562 65.75 124.050781 83.898438 124.050781 Z M 80.550781 52.75 C 75 52.75 70.5 48.199219 70.5 42.601562 C 70.550781 36.949219 75 32.398438 80.550781 32.398438 C 86.050781 32.398438 90.601562 37 90.601562 42.601562 C 90.601562 48.199219 86.101562 52.75 80.550781 52.75 Z M 80.550781 52.75 "/>
</g>
</svg>
