<?xml version="1.0" encoding="UTF-8"?>
<svg xmlns="http://www.w3.org/2000/svg" xmlns:xlink="http://www.w3.org/1999/xlink" width="224pt" height="256pt" viewBox="0 0 224 256" version="1.1">
<g id="surface1">
<path style=" stroke:none;fill-rule:nonzero;fill:rgb(100%,100%,0%);fill-opacity:1;" d="M 0 16 L 0 240 L 224 240 L 224 16 Z M 121.898438 190.699219 C 121.898438 212.5 109.101562 222.449219 90.449219 222.449219 C 73.601562 222.449219 63.851562 213.75 58.851562 203.199219 L 76 192.851562 C 79.300781 198.699219 82.300781 203.648438 89.550781 203.648438 C 96.449219 203.648438 100.851562 200.949219 100.851562 190.398438 L 100.851562 118.851562 L 121.898438 118.851562 Z M 171.699219 222.449219 C 152.148438 222.449219 139.5 213.148438 133.351562 200.949219 L 150.5 191.050781 C 155 198.398438 160.898438 203.851562 171.25 203.851562 C 179.949219 203.851562 185.550781 199.5 185.550781 193.449219 C 185.550781 186.25 179.851562 183.699219 170.199219 179.449219 L 164.949219 177.199219 C 149.75 170.75 139.699219 162.601562 139.699219 145.449219 C 139.699219 129.648438 151.75 117.648438 170.5 117.648438 C 183.898438 117.648438 193.5 122.300781 200.398438 134.5 L 184 145 C 180.398438 138.550781 176.5 136 170.449219 136 C 164.300781 136 160.398438 139.898438 160.398438 145 C 160.398438 151.300781 164.300781 153.851562 173.351562 157.800781 L 178.601562 160.050781 C 196.5 167.699219 206.550781 175.550781 206.550781 193.148438 C 206.550781 212.050781 191.648438 222.449219 171.699219 222.449219 Z M 171.699219 222.449219 "/>
</g>
</svg>
