<?xml version="1.0" encoding="UTF-8"?>
<svg xmlns="http://www.w3.org/2000/svg" xmlns:xlink="http://www.w3.org/1999/xlink" width="224pt" height="256pt" viewBox="0 0 224 256" version="1.1">
<g id="surface6">
<path style=" stroke:none;fill-rule:nonzero;fill:rgb(54.901963%,55.29412%,100%);fill-opacity:1;" d="M 216.5 89.554688 C 216.5 40.953125 184.644531 26.703125 184.644531 26.703125 C 153.386719 12.355469 70.363281 12.503906 39.40625 26.703125 C 39.40625 26.703125 7.546875 40.953125 7.546875 89.554688 C 7.546875 147.40625 4.246094 219.253906 60.359375 234.105469 C 80.613281 239.453125 98.019531 240.605469 112.023438 239.804688 C 137.429688 238.40625 151.683594 230.753906 151.683594 230.753906 L 150.835938 212.304688 C 150.835938 212.304688 132.679688 218.003906 112.273438 217.355469 C 92.070312 216.65625 70.773438 215.15625 67.460938 190.355469 C 67.152344 188.050781 67.003906 185.730469 67.011719 183.40625 C 109.824219 193.855469 146.335938 187.953125 156.386719 186.753906 C 184.445312 183.40625 208.886719 166.105469 212 150.304688 C 216.898438 125.40625 216.5 89.554688 216.5 89.554688 Z M 178.941406 152.15625 L 155.625 152.15625 L 155.625 95.054688 C 155.625 70.203125 123.625 69.253906 123.625 98.503906 L 123.625 129.753906 L 100.460938 129.753906 L 100.460938 98.5 C 100.460938 69.25 68.460938 70.199219 68.460938 95.050781 L 68.460938 152.148438 L 45.09375 152.148438 C 45.09375 91.101562 42.496094 78.199219 54.300781 64.648438 C 67.25 50.199219 94.210938 49.25 106.214844 67.699219 L 112.015625 77.449219 L 117.816406 67.699219 C 129.871094 49.148438 156.875 50.300781 169.730469 64.648438 C 181.585938 78.300781 178.929688 91.148438 178.929688 152.148438 Z M 178.941406 152.15625 "/>
</g>
</svg>
